<?xml version="1.0" encoding="utf-8"?>
<!-- Generator: Adobe Illustrator 21.1.0, SVG Export Plug-In . SVG Version: 6.00 Build 0)  -->
<svg version="1.1" id="Layer_1" xmlns="http://www.w3.org/2000/svg" xmlns:xlink="http://www.w3.org/1999/xlink" x="0px" y="0px"
	 viewBox="0 0 2467.6 707.9" style="enable-background:new 0 0 2467.6 707.9;" xml:space="preserve">
<style type="text/css">
	.st0{fill:#FFFFFF;}
</style>
<g transform="scale(4.00216 4.0011)">
	<path class="st0" d="M616.6,159.2c0,9.8-7.9,17.7-17.7,17.7c0,0,0,0,0,0h-581C8,176.9,0,169,0,159.2V17.8C0,7.9,8,0,17.8,0h581
		c9.8,0,17.8,7.9,17.8,17.8c0,0,0,0,0,0L616.6,159.2L616.6,159.2z"/>
	<path d="M616.6,159.2c0,9.8-7.9,17.7-17.7,17.7c0,0,0,0,0,0h-581C8,176.9,0,169,0,159.2V17.8C0,7.9,8,0,17.8,0h581
		c9.8,0,17.8,7.9,17.8,17.8c0,0,0,0,0,0L616.6,159.2L616.6,159.2z"/>
	<path class="st0" d="M135.4,87.5c-0.1-14.9,12.2-22.2,12.8-22.5c-7-10.2-17.8-11.6-21.7-11.7c-9.1-1-17.9,5.5-22.6,5.5
		c-4.7,0-11.9-5.4-19.6-5.2c-9.9,0.2-19.2,5.9-24.3,14.8c-10.5,18.2-2.7,44.9,7.4,59.5c5,7.2,10.9,15.2,18.6,14.9
		c7.5-0.3,10.3-4.8,19.4-4.8c9,0,11.6,4.8,19.5,4.6c8.1-0.1,13.2-7.2,18-14.5c5.8-8.2,8.1-16.4,8.2-16.8
		C151,111.3,135.6,105.4,135.4,87.5L135.4,87.5z M120.6,43.6c4-5.1,6.8-11.9,6-18.9c-5.9,0.3-13.2,4.1-17.4,9
		c-3.7,4.4-7.1,11.5-6.2,18.2C109.6,52.4,116.4,48.6,120.6,43.6L120.6,43.6z"/>
	<g>
		<path class="st0" d="M244.4,141.8h-10.5l-5.8-18.1h-20l-5.5,18.1h-10.2l19.8-61.6h12.3L244.4,141.8L244.4,141.8z M226.4,116.1
			l-5.2-16.1c-0.6-1.6-1.6-5.5-3.1-11.6h-0.2c-0.6,2.6-1.6,6.5-2.9,11.6l-5.1,16.1H226.4z M295.3,119c0,7.6-2.1,13.5-6.2,17.9
			c-3.7,3.9-8.2,5.9-13.7,5.9c-5.9,0-10.1-2.1-12.7-6.3v23.3h-9.9v-47.9c0-4.7-0.1-9.6-0.4-14.6h8.7l0.6,7h0.2c3.3-5.3,8.3-8,15-8
			c5.2,0,9.6,2.1,13.1,6.2C293.6,106.8,295.3,112.2,295.3,119L295.3,119z M285.3,119.4c0-4.3-1-7.9-2.9-10.7c-2.1-2.9-5-4.4-8.6-4.4
			c-2.4,0-4.6,0.8-6.6,2.4c-2,1.6-3.3,3.7-3.9,6.4c-0.3,1-0.4,2-0.5,3v7.4c0,3.2,1,6,3,8.2c2,2.2,4.6,3.3,7.7,3.3
			c3.7,0,6.6-1.4,8.7-4.3C284.2,127.8,285.3,124.1,285.3,119.4z M346.4,119c0,7.6-2.1,13.5-6.2,17.9c-3.7,3.9-8.2,5.9-13.7,5.9
			c-5.9,0-10.1-2.1-12.7-6.3v23.3H304v-47.9c0-4.7-0.1-9.6-0.4-14.6h8.7l0.6,7h0.2c3.3-5.3,8.3-8,15-8c5.2,0,9.6,2.1,13.1,6.2
			C344.7,106.8,346.4,112.2,346.4,119L346.4,119z M336.4,119.4c0-4.3-1-7.9-2.9-10.7c-2.1-2.9-5-4.4-8.6-4.4c-2.4,0-4.6,0.8-6.6,2.4
			c-2,1.6-3.3,3.7-3.9,6.4c-0.3,1.2-0.5,2.2-0.5,3v7.4c0,3.2,1,6,3,8.2c2,2.2,4.6,3.3,7.7,3.3c3.7,0,6.6-1.4,8.7-4.3
			C335.3,127.8,336.4,124.1,336.4,119.4z M403.6,124.5c0,5.2-1.8,9.5-5.5,12.8c-4,3.6-9.6,5.4-16.8,5.4c-6.6,0-11.9-1.3-16-3.8
			l2.3-8.2c4.3,2.6,9.1,3.8,14.3,3.8c3.7,0,6.6-0.8,8.7-2.5c2.1-1.7,3.1-3.9,3.1-6.7c0-2.5-0.9-4.6-2.6-6.3
			c-1.7-1.7-4.5-3.3-8.5-4.8c-10.8-4-16.2-9.9-16.2-17.7c0-5.1,1.9-9.2,5.7-12.4c3.8-3.2,8.9-4.8,15.1-4.8c5.6,0,10.3,1,14,2.9
			l-2.5,8c-3.5-1.9-7.4-2.8-11.8-2.8c-3.5,0-6.2,0.9-8.2,2.6c-1.6,1.5-2.5,3.4-2.5,5.6c0,2.4,0.9,4.5,2.8,6c1.6,1.5,4.6,3,9,4.8
			c5.3,2.1,9.2,4.6,11.7,7.5C402.3,116.7,403.6,120.2,403.6,124.5L403.6,124.5z M436.3,104.7h-10.9v21.6c0,5.5,1.9,8.2,5.8,8.2
			c1.8,0,3.2-0.1,4.4-0.5l0.3,7.5c-1.9,0.7-4.5,1.1-7.7,1.1c-3.9,0-6.9-1.2-9.1-3.6c-2.2-2.4-3.3-6.4-3.3-12v-22.4h-6.5v-7.4h6.5
			v-8.1l9.7-2.9v11.1h10.9L436.3,104.7L436.3,104.7z M485.3,119.2c0,6.8-2,12.4-5.9,16.8c-4.1,4.5-9.5,6.8-16.3,6.8
			c-6.5,0-11.7-2.2-15.6-6.5c-3.9-4.3-5.8-9.8-5.8-16.4c0-6.9,2-12.5,6-16.9c4-4.4,9.4-6.6,16.1-6.6c6.5,0,11.8,2.2,15.7,6.5
			C483.4,107.1,485.3,112.5,485.3,119.2L485.3,119.2z M475.1,119.4c0-4.1-0.9-7.6-2.6-10.5c-2.1-3.5-5-5.3-8.9-5.3
			c-4,0-7,1.8-9.1,5.3c-1.8,2.9-2.6,6.5-2.6,10.7c0,4.1,0.9,7.6,2.6,10.5c2.1,3.5,5.1,5.3,9,5.3c3.8,0,6.7-1.8,8.9-5.4
			C474.2,127,475.1,123.5,475.1,119.4L475.1,119.4z M517.4,106c-1-0.2-2.1-0.3-3.1-0.3c-3.5,0-6.2,1.3-8,3.9
			c-1.6,2.3-2.5,5.2-2.5,8.8v23.3h-9.9v-30.4c0-4.7-0.1-9.3-0.3-14h8.6l0.4,8.5h0.3c1-2.9,2.7-5.3,4.9-7c2.1-1.5,4.6-2.4,7.1-2.4
			c0.9,0,1.7,0.1,2.5,0.2L517.4,106L517.4,106z M561.6,117.4c0,1.5-0.1,3-0.4,4.5h-29.6c0.1,4.4,1.5,7.8,4.3,10.1
			c2.5,2.1,5.7,3.1,9.7,3.1c4.4,0,8.4-0.7,12-2.1l1.5,6.8c-4.2,1.8-9.2,2.7-14.9,2.7c-6.9,0-12.3-2-16.2-6.1
			c-3.9-4.1-5.9-9.5-5.9-16.3c0-6.7,1.8-12.3,5.5-16.7c3.8-4.8,9-7.1,15.5-7.1c6.4,0,11.3,2.4,14.5,7.1
			C560.3,107.2,561.6,111.9,561.6,117.4L561.6,117.4z M552.2,114.9c0.1-2.9-0.6-5.5-1.9-7.6c-1.7-2.8-4.3-4.1-7.9-4.1
			c-3.2,0-5.9,1.3-7.9,4c-1.6,2.1-2.6,4.7-2.9,7.7L552.2,114.9L552.2,114.9z"/>
	</g>
	<g>
		<path class="st0" d="M205.2,58.4c-2.7,0-5.1-0.1-7.1-0.4V28.2c2.8-0.4,5.6-0.6,8.4-0.6c11.3,0,16.5,5.6,16.5,14.7
			C223,52.7,216.9,58.4,205.2,58.4z M206.9,31.4c-1.5,0-2.8,0.1-3.9,0.3v22.6c0.6,0.1,1.7,0.1,3.3,0.1c7.4,0,11.6-4.2,11.6-12.1
			C217.9,35.3,214.1,31.4,206.9,31.4z M239.3,58.6c-6.4,0-10.5-4.8-10.5-11.2c0-6.7,4.2-11.5,10.9-11.5c6.3,0,10.5,4.5,10.5,11.2
			C250.2,53.8,245.8,58.6,239.3,58.6L239.3,58.6z M239.5,39.3c-3.5,0-5.8,3.3-5.8,7.9c0,4.5,2.3,7.8,5.7,7.8s5.7-3.5,5.7-7.9
			C245.1,42.7,242.9,39.3,239.5,39.3L239.5,39.3z M286.6,36.2l-6.8,21.8h-4.5l-2.8-9.5c-0.7-2.3-1.3-4.7-1.8-7.1h-0.1
			c-0.4,2.4-1,4.8-1.8,7.1l-3,9.5h-4.5l-6.4-21.8h5l2.5,10.4c0.6,2.5,1.1,4.8,1.5,7h0.1c0.4-1.8,0.9-4.1,1.8-7l3.1-10.4h4l3,10.2
			c0.7,2.5,1.3,4.9,1.8,7.2h0.1c0.3-2.2,0.8-4.6,1.5-7.2l2.7-10.2L286.6,36.2L286.6,36.2z M311.7,58.1h-4.9V45.5
			c0-3.9-1.5-5.8-4.4-5.8c-2.9,0-4.9,2.5-4.9,5.3v13h-4.9V42.5c0-1.9,0-4-0.2-6.2h4.3l0.2,3.4h0.1c1.3-2.3,4-3.8,6.9-3.8
			c4.6,0,7.6,3.5,7.6,9.2L311.7,58.1L311.7,58.1z M325.1,58.1h-4.9V26.2h4.9V58.1z M342.8,58.6c-6.4,0-10.5-4.8-10.5-11.2
			c0-6.7,4.2-11.5,10.9-11.5c6.3,0,10.5,4.5,10.5,11.2C353.7,53.8,349.3,58.6,342.8,58.6L342.8,58.6z M343,39.3
			c-3.5,0-5.8,3.3-5.8,7.9c0,4.5,2.3,7.8,5.7,7.8c3.4,0,5.7-3.5,5.7-7.9C348.6,42.7,346.4,39.3,343,39.3L343,39.3z M372.8,58.1
			l-0.4-2.5h-0.1c-1.5,2-3.6,3-6.4,3c-3.9,0-6.7-2.7-6.7-6.4c0-5.4,4.7-8.2,12.8-8.2v-0.4c0-2.9-1.5-4.3-4.5-4.3
			c-2.2,0-4,0.5-5.7,1.6l-1-3.2c2-1.3,4.5-1.9,7.5-1.9c5.7,0,8.6,3,8.6,9v8c0,2.2,0.1,3.9,0.3,5.2L372.8,58.1L372.8,58.1z
			 M372.1,47.2c-5.4,0-8.1,1.3-8.1,4.4c0,2.3,1.4,3.4,3.3,3.4c2.5,0,4.8-1.9,4.8-4.4V47.2z M400.4,58.1l-0.2-3.5h-0.1
			c-1.4,2.6-3.7,4-7,4c-5.3,0-9.2-4.6-9.2-11.1c0-6.8,4-11.6,9.6-11.6c2.9,0,5,1,6.2,3h0.1V26.2h4.9v26c0,2.1,0.1,4.1,0.2,5.9
			L400.4,58.1L400.4,58.1z M399.7,45.2c0-3.1-2-5.7-5.1-5.7c-3.6,0-5.8,3.2-5.8,7.7c0,4.4,2.3,7.4,5.7,7.4c3.1,0,5.2-2.7,5.2-5.8
			L399.7,45.2L399.7,45.2z M435.4,58.6c-6.4,0-10.5-4.8-10.5-11.2c0-6.7,4.2-11.5,10.9-11.5c6.3,0,10.5,4.5,10.5,11.2
			C446.2,53.8,441.9,58.6,435.4,58.6L435.4,58.6z M435.5,39.3c-3.5,0-5.7,3.3-5.7,7.9c0,4.5,2.3,7.8,5.7,7.8c3.4,0,5.7-3.5,5.7-7.9
			C441.2,42.7,439,39.3,435.5,39.3L435.5,39.3z M472.3,58.1h-4.9V45.5c0-3.9-1.5-5.8-4.4-5.8c-2.9,0-4.8,2.5-4.8,5.3v13h-4.9V42.5
			c0-1.9,0-4-0.2-6.2h4.3l0.2,3.4h0.1c1.3-2.3,4-3.8,6.9-3.8c4.6,0,7.6,3.5,7.6,9.2V58.1z M505,39.9h-5.3v10.6c0,2.7,0.9,4,2.8,4
			c0.9,0,1.6-0.1,2.2-0.2l0.1,3.7c-0.9,0.4-2.2,0.5-3.8,0.5c-3.8,0-6.1-2.1-6.1-7.6v-11h-3.2v-3.6h3.2v-4l4.8-1.4v5.4h5.3L505,39.9
			L505,39.9z M530.7,58.1h-4.8V45.6c0-3.9-1.5-5.9-4.4-5.9c-2.5,0-4.9,1.7-4.9,5.2v13.2h-4.8V26.2h4.8v13.1h0.1
			c1.5-2.4,3.7-3.6,6.6-3.6c4.6,0,7.4,3.6,7.4,9.3V58.1L530.7,58.1z M557,48.3h-14.6c0.1,4.1,2.8,6.5,6.9,6.5c2.2,0,4.1-0.4,5.9-1
			l0.8,3.4c-2.1,0.9-4.5,1.3-7.3,1.3c-6.8,0-10.9-4.3-10.9-11c0-6.7,4.1-11.7,10.3-11.7c5.6,0,9.1,4.1,9.1,10.4
			C557.2,46.9,557.1,47.6,557,48.3L557,48.3z M552.6,44.9c0-3.4-1.7-5.8-4.8-5.8c-2.8,0-5,2.4-5.3,5.8H552.6L552.6,44.9z"/>
	</g>
</g>
</svg>
